<svg width="450" height="450" viewBox="0 0 450 450" fill="none" xmlns="http://www.w3.org/2000/svg">
<path d="M289.868 307.935C314.617 303.551 338.305 291.742 357.538 272.509C407.531 222.516 407.531 141.482 357.538 91.4892C307.546 41.4968 226.511 41.4967 176.519 91.4892C157.285 110.722 145.477 134.411 141.093 159.159C139.961 165.523 138.83 172.877 137.628 180.726C134.234 202.364 130.133 228.244 123.486 251.154C117.405 271.943 107.152 289.691 95.7672 304.753L61.2604 270.387C68.1901 260.346 73.8469 249.457 77.3117 237.648C83.0393 217.92 86.292 197.272 89.5447 176.625C90.8882 167.927 92.2317 159.23 93.7873 150.603C99.9391 116.591 116.203 83.9232 142.578 57.5481C211.308 -11.1827 322.748 -11.1827 391.479 57.5481C460.21 126.279 460.21 237.719 391.479 306.45C365.104 332.825 332.436 349.088 298.353 355.169C289.727 356.725 281.029 358.068 272.332 359.412C251.755 362.594 231.107 365.847 211.308 371.645C199.5 375.11 188.61 380.767 178.569 387.696L144.204 353.331C159.265 341.946 177.084 331.623 197.803 325.612C220.713 318.965 246.593 314.864 268.231 311.47C276.079 310.268 283.363 309.066 289.727 307.935L289.868 307.935ZM300.97 148.058C282.231 129.319 251.826 129.319 233.087 148.058C226.865 154.28 216.682 154.28 210.46 148.058C204.237 141.835 204.237 131.653 210.46 125.43C241.714 94.1762 292.343 94.1762 323.597 125.43C329.82 131.653 329.82 141.835 323.597 148.058C317.374 154.28 307.192 154.28 300.97 148.058ZM29.4406 419.587C-1.81355 388.333 -1.81355 337.704 29.4406 306.45L40.7543 295.136L153.891 408.273L142.578 419.587C111.324 450.841 60.6947 450.841 29.4406 419.587Z" fill="#518046"/>
<path d="M300.969 148.057C282.231 129.319 251.825 129.319 233.087 148.057C226.865 154.28 216.682 154.28 210.46 148.057C204.237 141.835 204.237 131.652 210.46 125.43C241.714 94.1757 292.343 94.1757 323.597 125.43C329.819 131.652 329.819 141.835 323.597 148.057C317.374 154.28 307.192 154.28 300.969 148.057ZM29.4403 419.586C-1.81382 388.332 -1.81382 337.703 29.4403 306.449L40.754 295.135L153.891 408.273L142.577 419.586C111.323 450.84 60.6944 450.84 29.4403 419.586Z" fill="#4E72AC"/>
</svg>
